<?xml version="1.0" standalone="no"?>
<!DOCTYPE svg PUBLIC "-//W3C//DTD SVG 20010904//EN"
 "http://www.w3.org/TR/2001/REC-SVG-20010904/DTD/svg10.dtd">
<svg version="1.0" xmlns="http://www.w3.org/2000/svg"
 width="700.000000pt" height="700.000000pt" viewBox="0 0 700.000000 700.000000"
 preserveAspectRatio="xMidYMid meet">
<metadata>
Created by potrace 1.11, written by Peter Selinger 2001-2013
</metadata>
<g transform="translate(0.000000,700.000000) scale(0.100000,-0.100000)"
fill="#000000" stroke="none">
<path d="M0 3500 l0 -3500 3500 0 3500 0 0 3500 0 3500 -3500 0 -3500 0 0
-3500z m3951 2625 c134 -349 247 -635 250 -635 4 0 307 191 674 425 367 234
669 424 671 423 1 -2 -60 -325 -136 -718 -77 -393 -140 -722 -140 -732 0 -11
6 -15 18 -11 47 12 1217 240 1220 238 2 -2 -173 -213 -388 -470 -215 -256
-393 -472 -396 -479 -3 -9 124 -40 478 -115 266 -57 487 -107 491 -111 5 -4
-99 -90 -230 -192 -548 -424 -544 -421 -531 -434 14 -12 705 -595 777 -655
l43 -35 -219 -24 c-531 -56 -618 -66 -616 -75 1 -6 112 -248 247 -539 135
-291 245 -531 243 -532 -2 -2 -126 34 -277 80 -151 45 -429 129 -618 186 -188
57 -344 101 -347 99 -2 -3 110 -295 251 -648 140 -354 253 -645 251 -648 -3
-2 -33 11 -68 30 -146 79 -1151 588 -1154 585 -2 -2 -65 -160 -140 -353 -76
-192 -140 -356 -144 -363 -5 -8 -115 83 -340 280 -184 161 -337 293 -341 293
-6 0 -361 -289 -874 -712 -28 -23 -51 -41 -52 -40 -1 1 -24 228 -50 505 l-48
504 164 161 c91 89 173 168 182 175 25 20 121 -12 114 -36 -3 -10 -19 -73 -36
-142 -17 -69 -33 -132 -36 -141 -4 -13 15 -21 103 -43 60 -15 115 -29 124 -32
13 -4 23 23 55 147 21 83 43 153 48 155 6 2 56 -2 111 -9 l100 -12 3 -164 3
-164 46 7 c25 3 81 6 124 6 l79 0 0 159 0 159 83 12 c45 6 94 14 108 17 25 5
26 3 69 -149 24 -84 44 -154 44 -155 2 -3 236 64 241 69 3 2 -14 68 -36 147
-22 78 -39 148 -36 154 4 11 171 87 189 87 4 0 40 -55 79 -123 40 -67 77 -127
83 -134 11 -11 15 -9 189 94 l37 22 -80 135 c-44 74 -80 139 -80 143 1 4 24
25 53 45 29 21 67 50 85 64 l32 27 115 -114 115 -113 23 24 c13 14 52 56 87
93 l64 68 -113 113 -113 114 63 83 c34 46 64 85 65 87 1 2 62 -31 136 -73 74
-41 138 -75 144 -75 5 0 35 48 68 107 50 90 56 108 44 117 -8 6 -72 42 -141
81 -110 60 -124 71 -116 87 6 10 24 56 42 102 l32 83 150 -38 c83 -21 153 -39
156 -39 4 0 19 48 33 108 15 59 29 114 31 122 4 12 -28 24 -151 55 l-156 40 6
35 c3 19 8 67 12 106 l7 71 160 6 c88 4 162 8 163 10 2 2 1 58 -3 125 l-6 122
-157 0 -158 0 -12 83 c-6 45 -14 94 -17 108 -5 25 -3 26 151 69 128 35 156 46
152 59 -3 9 -17 59 -32 111 -14 52 -29 100 -33 106 -4 8 -49 -1 -141 -27 -74
-21 -143 -40 -153 -41 -14 -2 -26 16 -53 82 -20 47 -38 92 -41 100 -3 11 33
38 129 94 73 43 135 80 136 82 6 5 -122 214 -131 214 -4 0 -68 -36 -142 -79
l-133 -79 -31 43 c-16 23 -46 61 -66 85 l-35 42 109 117 110 116 -90 90 -91
90 -111 -116 -112 -116 -65 51 c-36 28 -76 58 -88 66 l-22 15 79 140 c43 77
78 141 77 141 0 1 -50 29 -110 64 -85 49 -110 59 -117 49 -5 -8 -41 -72 -81
-142 -39 -70 -77 -125 -82 -123 -6 3 -52 22 -102 42 l-92 37 39 146 c21 80 39
151 39 156 0 12 -238 76 -244 66 -3 -4 -21 -72 -41 -151 -20 -80 -38 -146 -40
-148 -2 -2 -51 2 -109 8 l-106 13 0 97 c0 53 -3 125 -6 159 l-7 61 -123 0
-124 0 0 -160 c0 -158 0 -160 -22 -164 -50 -10 -190 -27 -193 -24 -2 2 -22 71
-45 155 l-42 151 -71 -19 c-40 -11 -95 -27 -123 -35 l-52 -15 23 -82 c12 -45
32 -115 43 -155 l21 -73 -27 -11 c-15 -6 -60 -26 -100 -44 l-72 -33 -24 37
c-12 20 -48 81 -80 135 -31 53 -62 97 -68 97 -18 0 -208 -114 -208 -125 0 -5
34 -66 75 -135 41 -69 75 -130 75 -136 0 -7 -11 -19 -24 -28 -14 -9 -50 -36
-81 -61 -66 -54 -53 -60 -197 82 l-93 93 -90 -90 -90 -90 114 -114 c82 -82
111 -117 105 -127 -19 -31 -117 -159 -121 -159 -2 0 -59 31 -127 70 -68 38
-130 72 -138 75 -15 6 -62 -66 -121 -182 l-17 -31 138 -77 c75 -43 138 -78
139 -79 2 -2 -76 -197 -81 -203 -1 -1 -70 16 -155 38 -84 22 -154 39 -156 37
-1 -2 -15 -57 -32 -124 l-30 -121 151 -38 c83 -21 153 -39 154 -41 2 -1 -2
-52 -8 -113 l-13 -111 -158 0 -159 0 0 -125 0 -125 160 0 c158 0 160 0 164
-22 11 -57 27 -190 23 -194 -2 -2 -70 -23 -150 -45 -98 -28 -147 -46 -147 -55
0 -14 58 -225 63 -230 1 -2 65 15 142 37 77 21 148 39 157 39 11 0 21 -14 29
-41 l13 -40 -180 -180 -180 -180 -174 20 c-96 11 -359 41 -585 67 -226 25
-417 49 -426 52 -12 5 98 127 452 501 258 272 469 498 469 502 0 5 -179 212
-397 460 -219 248 -399 454 -400 458 -2 3 205 48 460 99 613 124 657 134 657
141 0 3 -110 281 -244 616 -134 336 -243 611 -242 612 1 2 153 -63 337 -143
831 -362 910 -396 916 -390 3 2 -1 270 -7 596 -7 325 -10 593 -8 596 3 2 173
-174 378 -393 205 -219 376 -399 380 -401 4 -2 159 254 345 568 185 313 338
570 339 570 1 0 112 -286 247 -635z m-196 -1301 c325 -56 600 -199 835 -434
211 -210 348 -452 415 -733 83 -352 47 -711 -105 -1033 -312 -663 -1045 -1017
-1765 -852 -49 11 -96 23 -102 27 -8 4 27 46 100 118 l112 112 50 -11 c83 -18
357 -15 455 5 342 68 632 261 828 549 47 69 117 213 146 298 78 238 86 505 21
748 -21 79 -94 264 -110 280 -3 3 -200 -188 -438 -424 -238 -237 -448 -440
-467 -452 -61 -36 -147 -55 -222 -50 -264 19 -398 296 -261 538 15 26 201 221
450 471 329 330 421 428 411 436 -20 17 -115 57 -203 86 -375 122 -773 70
-1106 -144 -115 -75 -283 -240 -359 -353 -79 -119 -147 -269 -182 -403 -36
-143 -48 -348 -28 -495 l12 -91 -113 -113 c-130 -131 -115 -134 -154 30 -86
351 -38 737 131 1066 74 145 159 262 274 380 255 258 572 413 947 460 92 12
317 3 428 -16z"/>
</g>
</svg>
