<?xml version="1.0" encoding="UTF-8" standalone="no"?>
<!-- Created with Inkscape (http://www.inkscape.org/) -->

<svg
   xmlns:dc="http://purl.org/dc/elements/1.1/"
   xmlns:cc="http://creativecommons.org/ns#"
   xmlns:rdf="http://www.w3.org/1999/02/22-rdf-syntax-ns#"
   xmlns:svg="http://www.w3.org/2000/svg"
   xmlns="http://www.w3.org/2000/svg"
   xmlns:sodipodi="http://sodipodi.sourceforge.net/DTD/sodipodi-0.dtd"
   xmlns:inkscape="http://www.inkscape.org/namespaces/inkscape"
   width="37"
   height="37"
   viewBox="0 0 9.7895831 9.7895836"
   version="1.1"
   id="svg8"
   inkscape:version="0.92.2 (5c3e80d, 2017-08-06)"
   sodipodi:docname="createnewicons.svg"
   inkscape:export-filename="C:\Users\dirk\hackerspace_37x37.png"
   inkscape:export-xdpi="96"
   inkscape:export-ydpi="96">
  <defs
     id="defs2">
    <filter
       inkscape:collect="always"
       style="color-interpolation-filters:sRGB"
       id="filter867"
       x="-0.038249999"
       width="1.0765001"
       y="-0.034000002"
       height="1.068">
      <feGaussianBlur
         inkscape:collect="always"
         stdDeviation="0.12650391"
         id="feGaussianBlur869" />
    </filter>
    <filter
       inkscape:collect="always"
       style="color-interpolation-filters:sRGB"
       id="filter950"
       x="-0.036"
       width="1.072"
       y="-0.036"
       height="1.072">
      <feGaussianBlur
         inkscape:collect="always"
         stdDeviation="0.041813614"
         id="feGaussianBlur952" />
    </filter>
    <filter
       y="-100%"
       x="-100%"
       width="300%"
       height="300%"
       id="shadow-2">
      <feFlood
         id="feFlood955"
         result="flood"
         flood-color="rgba(255, 255, 255, 1)" />
      <feComposite
         id="feComposite957"
         result="composite"
         operator="out"
         in2="SourceGraphic"
         in="flood" />
      <feGaussianBlur
         id="feGaussianBlur959"
         result="blur"
         stdDeviation="15"
         in="composite" />
      <feOffset
         id="feOffset961"
         result="offset"
         dx="15" />
      <feComposite
         id="feComposite963"
         operator="atop"
         in="offset"
         in2="SourceGraphic" />
    </filter>
    <filter
       y="-100%"
       x="-100%"
       width="300%"
       height="300%"
       id="shadow-3">
      <feFlood
         id="feFlood966"
         result="flood"
         flood-color="rgba(255, 255, 255, 1)" />
      <feComposite
         id="feComposite968"
         result="composite"
         operator="out"
         in2="SourceGraphic"
         in="flood" />
      <feGaussianBlur
         id="feGaussianBlur970"
         result="blur"
         stdDeviation="15"
         in="composite" />
      <feOffset
         id="feOffset972"
         result="offset"
         dx="15" />
      <feComposite
         id="feComposite974"
         operator="atop"
         in="offset"
         in2="SourceGraphic" />
    </filter>
    <filter
       y="-100%"
       x="-100%"
       width="300%"
       height="300%"
       id="shadow-4">
      <feFlood
         id="feFlood977"
         result="flood"
         flood-color="rgba(255, 255, 255, 1)" />
      <feComposite
         id="feComposite979"
         result="composite"
         operator="out"
         in2="SourceGraphic"
         in="flood" />
      <feGaussianBlur
         id="feGaussianBlur981"
         result="blur"
         stdDeviation="15"
         in="composite" />
      <feOffset
         id="feOffset983"
         result="offset"
         dx="15" />
      <feComposite
         id="feComposite985"
         operator="atop"
         in="offset"
         in2="SourceGraphic" />
    </filter>
    <filter
       y="-100%"
       x="-100%"
       width="300%"
       height="300%"
       id="shadow-5">
      <feFlood
         id="feFlood988"
         result="flood"
         flood-color="rgba(255, 255, 255, 1)" />
      <feComposite
         id="feComposite990"
         result="composite"
         operator="out"
         in2="SourceGraphic"
         in="flood" />
      <feGaussianBlur
         id="feGaussianBlur992"
         result="blur"
         stdDeviation="15"
         in="composite" />
      <feOffset
         id="feOffset994"
         result="offset"
         dx="15" />
      <feComposite
         id="feComposite996"
         operator="atop"
         in="offset"
         in2="SourceGraphic" />
    </filter>
    <filter
       y="-100%"
       x="-100%"
       width="300%"
       height="300%"
       id="shadow-6">
      <feFlood
         id="feFlood999"
         result="flood"
         flood-color="rgba(255, 255, 255, 1)" />
      <feComposite
         id="feComposite1001"
         result="composite"
         operator="out"
         in2="SourceGraphic"
         in="flood" />
      <feGaussianBlur
         id="feGaussianBlur1003"
         result="blur"
         stdDeviation="15"
         in="composite" />
      <feOffset
         id="feOffset1005"
         result="offset"
         dx="15" />
      <feComposite
         id="feComposite1007"
         operator="atop"
         in="offset"
         in2="SourceGraphic" />
    </filter>
    <filter
       y="-100%"
       x="-100%"
       width="300%"
       height="300%"
       id="shadow-7">
      <feFlood
         id="feFlood1010"
         result="flood"
         flood-color="rgba(255, 255, 255, 1)" />
      <feComposite
         id="feComposite1012"
         result="composite"
         operator="out"
         in2="SourceGraphic"
         in="flood" />
      <feGaussianBlur
         id="feGaussianBlur1014"
         result="blur"
         stdDeviation="15"
         in="composite" />
      <feOffset
         id="feOffset1016"
         result="offset"
         dx="15" />
      <feComposite
         id="feComposite1018"
         operator="atop"
         in="offset"
         in2="SourceGraphic" />
    </filter>
    <filter
       y="-100%"
       x="-100%"
       width="300%"
       height="300%"
       id="shadow-2-6">
      <feFlood
         id="feFlood1258"
         result="flood"
         flood-color="rgba(255, 255, 255, 1)" />
      <feComposite
         id="feComposite1260"
         result="composite"
         operator="out"
         in2="SourceGraphic"
         in="flood" />
      <feGaussianBlur
         id="feGaussianBlur1262"
         result="blur"
         stdDeviation="15"
         in="composite" />
      <feOffset
         id="feOffset1264"
         result="offset"
         dx="15" />
      <feComposite
         id="feComposite1266"
         operator="atop"
         in="offset"
         in2="SourceGraphic" />
    </filter>
    <filter
       y="-100%"
       x="-100%"
       width="300%"
       height="300%"
       id="shadow-3-4">
      <feFlood
         id="feFlood1269"
         result="flood"
         flood-color="rgba(255, 255, 255, 1)" />
      <feComposite
         id="feComposite1271"
         result="composite"
         operator="out"
         in2="SourceGraphic"
         in="flood" />
      <feGaussianBlur
         id="feGaussianBlur1273"
         result="blur"
         stdDeviation="15"
         in="composite" />
      <feOffset
         id="feOffset1275"
         result="offset"
         dx="15" />
      <feComposite
         id="feComposite1277"
         operator="atop"
         in="offset"
         in2="SourceGraphic" />
    </filter>
    <filter
       y="-100%"
       x="-100%"
       width="300%"
       height="300%"
       id="shadow-4-3">
      <feFlood
         id="feFlood1280"
         result="flood"
         flood-color="rgba(255, 255, 255, 1)" />
      <feComposite
         id="feComposite1282"
         result="composite"
         operator="out"
         in2="SourceGraphic"
         in="flood" />
      <feGaussianBlur
         id="feGaussianBlur1284"
         result="blur"
         stdDeviation="15"
         in="composite" />
      <feOffset
         id="feOffset1286"
         result="offset"
         dx="15" />
      <feComposite
         id="feComposite1288"
         operator="atop"
         in="offset"
         in2="SourceGraphic" />
    </filter>
    <filter
       y="-100%"
       x="-100%"
       width="300%"
       height="300%"
       id="shadow-5-2">
      <feFlood
         id="feFlood1291"
         result="flood"
         flood-color="rgba(255, 255, 255, 1)" />
      <feComposite
         id="feComposite1293"
         result="composite"
         operator="out"
         in2="SourceGraphic"
         in="flood" />
      <feGaussianBlur
         id="feGaussianBlur1295"
         result="blur"
         stdDeviation="15"
         in="composite" />
      <feOffset
         id="feOffset1297"
         result="offset"
         dx="15" />
      <feComposite
         id="feComposite1299"
         operator="atop"
         in="offset"
         in2="SourceGraphic" />
    </filter>
    <filter
       y="-100%"
       x="-100%"
       width="300%"
       height="300%"
       id="shadow-6-4">
      <feFlood
         id="feFlood1302"
         result="flood"
         flood-color="rgba(255, 255, 255, 1)" />
      <feComposite
         id="feComposite1304"
         result="composite"
         operator="out"
         in2="SourceGraphic"
         in="flood" />
      <feGaussianBlur
         id="feGaussianBlur1306"
         result="blur"
         stdDeviation="15"
         in="composite" />
      <feOffset
         id="feOffset1308"
         result="offset"
         dx="15" />
      <feComposite
         id="feComposite1310"
         operator="atop"
         in="offset"
         in2="SourceGraphic" />
    </filter>
    <filter
       y="-100%"
       x="-100%"
       width="300%"
       height="300%"
       id="shadow-7-9">
      <feFlood
         id="feFlood1313"
         result="flood"
         flood-color="rgba(255, 255, 255, 1)" />
      <feComposite
         id="feComposite1315"
         result="composite"
         operator="out"
         in2="SourceGraphic"
         in="flood" />
      <feGaussianBlur
         id="feGaussianBlur1317"
         result="blur"
         stdDeviation="15"
         in="composite" />
      <feOffset
         id="feOffset1319"
         result="offset"
         dx="15" />
      <feComposite
         id="feComposite1321"
         operator="atop"
         in="offset"
         in2="SourceGraphic" />
    </filter>
  </defs>
  <sodipodi:namedview
     id="base"
     pagecolor="#ffffff"
     bordercolor="#666666"
     borderopacity="1.0"
     inkscape:pageopacity="0.0"
     inkscape:pageshadow="2"
     inkscape:zoom="11.2"
     inkscape:cx="16.305867"
     inkscape:cy="19.542777"
     inkscape:document-units="px"
     inkscape:current-layer="layer5"
     showgrid="false"
     units="px"
     inkscape:window-width="1920"
     inkscape:window-height="1027"
     inkscape:window-x="-8"
     inkscape:window-y="-8"
     inkscape:window-maximized="1" />
  <metadata
     id="metadata5">
    <rdf:RDF>
      <cc:Work
         rdf:about="">
        <dc:format>image/svg+xml</dc:format>
        <dc:type
           rdf:resource="http://purl.org/dc/dcmitype/StillImage" />
        <dc:title></dc:title>
      </cc:Work>
    </rdf:RDF>
  </metadata>
  <g
     inkscape:groupmode="layer"
     id="layer4"
     inkscape:label="iconbg_shadow"
     style="display:inline;opacity:0.4">
    <path
       style="display:inline;opacity:1;fill:#999999;fill-opacity:1;stroke:none;stroke-width:0.50840688;stroke-linecap:square;stroke-linejoin:round;stroke-miterlimit:4;stroke-dasharray:none;stroke-dashoffset:0;stroke-opacity:1;paint-order:fill markers stroke;filter:url(#filter867)"
       d="M 0.92245719,0.16536484 V 7.4414063 H 3.770829 l 1.653129,1.653646 1.65313,-1.653646 H 9.3927081 V 0.16536484 Z"
       id="rect831"
       inkscape:connector-curvature="0"
       transform="matrix(0.99327238,0,0,1.0592593,0.06319054,0.51936726)"
       sodipodi:nodetypes="cccccccc" />
    <rect
       style="opacity:1;fill:#999999;fill-opacity:1;stroke:none;stroke-width:0.26458332;stroke-linecap:square;stroke-linejoin:round;stroke-miterlimit:4;stroke-dasharray:none;stroke-dashoffset:0;stroke-opacity:1;paint-order:fill markers stroke;filter:url(#filter950)"
       id="rect936"
       width="2.7875743"
       height="2.7875743"
       x="4.299479"
       y="6.3405499"
       transform="matrix(0.69752851,0.78305092,-0.69752851,0.78305092,6.6097801,-3.8668407)" />
  </g>
  <g
     inkscape:groupmode="layer"
     id="layer3"
     inkscape:label="iconbg_template"
     style="display:none"
     sodipodi:insensitive="true">
    <path
       style="display:inline;opacity:1;fill:#ffcc00;fill-opacity:1;stroke:#000000;stroke-width:0.26458332;stroke-linecap:square;stroke-linejoin:round;stroke-miterlimit:4;stroke-dasharray:none;stroke-dashoffset:0;stroke-opacity:1;paint-order:fill markers stroke"
       d="M 0.92604167,0.69453123 V 7.9705727 H 3.2416627 l 1.653129,1.653646 1.65313,-1.653646 h 2.31562 V 0.69453123 Z"
       id="rect831-8"
       inkscape:connector-curvature="0" />
  </g>
  <g
     style="display:none"
     inkscape:label="iconbg 1 Kopie"
     id="g1233"
     inkscape:groupmode="layer" />
  <g
     inkscape:groupmode="layer"
     id="layer5"
     inkscape:label="hackerspace"
     style="display:inline;opacity:0.6">
    <path
       inkscape:connector-curvature="0"
       id="path1231"
       d="M 0.92604166,0.69453395 V 7.9705756 H 3.2416627 l 1.653129,1.6536459 1.65313,-1.6536459 h 2.31562 V 0.69453395 Z"
       style="display:inline;opacity:1;fill:#ffcc00;fill-opacity:1;stroke:#000000;stroke-width:0.26458332;stroke-linecap:square;stroke-linejoin:round;stroke-miterlimit:4;stroke-dasharray:none;stroke-dashoffset:0;stroke-opacity:1;paint-order:fill markers stroke" />
    <g
       class=""
       id="g1027"
       transform="matrix(0.01661041,-0.00503724,0.00487955,0.01712399,-0.75990656,1.6064527)"
       style="">
      <path
         style="fill:#000000;fill-opacity:1"
         inkscape:connector-curvature="0"
         d="m 270.953,17.215 -49.748,84.224 -56.092,-59.88 1.748,89.092 -92.368,-40.11 36.354,90.622 -82.698,16.805 59.42,67.454 -69.437,73.39 88.122,10.178 26.578,-26.578 c -0.852,-2.042 -1.668,-4.103 -2.42,-6.195 l -22.756,6.385 -5.05,-17.992 22.757,-6.386 c -1.065,-5.188 -1.83,-10.484 -2.27,-15.873 l -23.643,0.28 -0.22,-18.69 23.644,-0.278 c 0.315,-5.398 0.954,-10.712 1.898,-15.922 l -22.905,-5.848 4.623,-18.107 22.905,5.847 c 1.7,-5.1 3.698,-10.067 5.98,-14.875 l -20.63,-11.588 9.153,-16.293 20.652,11.6 c 2.95,-4.466 6.162,-8.743 9.615,-12.812 l -16.96,-16.563 13.06,-13.37 16.96,16.562 c 3.986,-3.548 8.187,-6.86 12.58,-9.914 l -12.085,-20.373 16.072,-9.535 12.074,20.35 c 4.755,-2.393 9.672,-4.507 14.732,-6.325 l -6.39,-22.766 17.99,-5.05 6.39,22.765 c 5.187,-1.067 10.482,-1.833 15.87,-2.274 l -0.278,-23.65 18.687,-0.223 0.28,23.652 c 5.398,0.313 10.71,0.953 15.92,1.897 l 5.85,-22.91 18.108,4.622 -5.85,22.91 c 5.1,1.698 10.067,3.695 14.875,5.975 l 11.588,-20.632 16.296,9.153 -11.6,20.653 c 4.466,2.95 8.743,6.162 12.813,9.615 l 16.56,-16.96 13.372,13.058 -16.562,16.96 c 3.548,3.985 6.86,8.185 9.916,12.58 l 20.37,-12.085 9.536,16.075 -20.348,12.07 c 2.395,4.754 4.51,9.67 6.33,14.73 l 22.758,-6.388 5.05,17.994 -22.757,6.388 c 1.067,5.187 1.832,10.482 2.274,15.87 l 23.64,-0.278 0.22,18.688 -23.64,0.28 c -0.31,5.398 -0.95,10.712 -1.893,15.923 l 22.894,5.846 -4.622,18.108 -22.894,-5.846 c -1.698,5.103 -3.696,10.07 -5.977,14.88 l 20.617,11.58 -9.152,16.294 -20.637,-11.592 c -2.95,4.467 -6.163,8.746 -9.617,12.817 l 16.947,16.55 -13.056,13.37 -16.95,-16.55 c -3.986,3.55 -8.19,6.863 -12.584,9.92 l 12.078,20.358 -16.075,9.535 -12.065,-20.338 c -4.755,2.395 -9.673,4.51 -14.734,6.328 l 6.385,22.75 -17.994,5.05 -6.384,-22.75 c -5.187,1.068 -10.483,1.834 -15.873,2.275 l 0.28,23.634 -18.686,0.22 -0.28,-23.635 c -5.398,-0.313 -10.712,-0.953 -15.923,-1.896 l -5.846,22.89 -18.107,-4.622 5.847,-22.894 c -2.582,-0.86 -5.128,-1.798 -7.637,-2.81 l -26.326,26.216 7.148,73.713 67.797,-55.734 49.456,43.487 21.12,-53.87 90.09,46.07 -38.16,-96.155 92.102,27.826 -36.908,-79.496 61.514,-6.506 -60.832,-51.39 57.994,-45.053 -73.29,-15.66 59.093,-70.504 -91.66,18 L 406.02,47.85 307.094,110.9 270.954,17.215 Z M 254.016,157.43 c -63.085,0.747 -113.42,52.287 -112.672,115.37 0.145,12.3 2.23,24.108 5.947,35.153 l 16.784,-16.783 c -6.17,-30.05 2.24,-62.392 25.697,-85.852 19.075,-19.073 44.026,-28.157 68.916,-27.447 l 0.003,-0.01 c 14.933,0.424 29.785,4.308 43.216,11.68 l -60.154,60.153 c -10.613,10.615 -11.292,27.843 -1.168,37.963 10.122,10.133 27.35,9.455 37.96,-1.158 L 338.7,226.345 c 19.66,35.818 14.75,81.61 -15.77,112.13 -23.46,23.47 -55.677,31.4 -85.852,25.114 l -16.557,16.488 c 11.394,3.64 23.562,5.544 36.195,5.395 C 319.8,384.726 370.136,333.185 369.39,270.104 368.642,207.02 317.097,156.684 254.016,157.432 Z"
         transform="matrix(0.9,0,0,0.9,25.6,25.6)"
         id="path1025" />
    </g>
  </g>
  <g
     style="display:none;opacity:0.6"
     inkscape:label="shop"
     id="g1256"
     inkscape:groupmode="layer">
    <path
       style="display:inline;opacity:1;fill:#aad400;fill-opacity:1;stroke:#000000;stroke-width:0.26458332;stroke-linecap:square;stroke-linejoin:round;stroke-miterlimit:4;stroke-dasharray:none;stroke-dashoffset:0;stroke-opacity:1;paint-order:fill markers stroke"
       d="M 0.92604166,0.69453395 V 7.9705756 H 3.2416627 l 1.653129,1.6536459 1.65313,-1.6536459 h 2.31562 V 0.69453395 Z"
       id="path1250"
       inkscape:connector-curvature="0" />
    <g
       class=""
       id="g1330"
       transform="matrix(0.01734569,0,0,0.01734569,0.45429503,-0.04769215)">
      <path
         style="fill:#000000;fill-opacity:1"
         inkscape:connector-curvature="0"
         d="m 225.814,32.316 c -3.955,-0.014 -7.922,-0.01 -11.9,0.007 -19.147,0.089 -38.6,0.592 -58.219,1.32 l 5.676,24.893 c 20.431,-2.31 42.83,-4.03 65.227,-4.89 12.134,-0.466 24.194,-0.712 35.892,-0.65 35.095,0.183 66.937,3.13 87.77,11.202 l 8.908,3.454 -3.977,8.685 c -29.061,63.485 -35.782,124.732 -31.228,184.826 2.248,-71.318 31.893,-134.75 70.81,-216.068 -52.956,-8.8 -109.634,-12.582 -168.959,-12.78 z m 28.034,38.79 c -8.74,0.007 -17.65,0.184 -26.559,0.526 -41.672,1.6 -83.199,6.49 -110.264,12.096 30.233,56.079 54.69,112.287 70.483,167.082 a 71.934,71.934 0 0 1 5.894,0.045 c 4.018,0.197 7.992,0.742 11.875,1.59 -16.075,-51.397 -34.385,-98.8 -57.146,-146.131 l -5.143,-10.694 11.686,-2.068 c 29.356,-5.198 59.656,-7.21 88.494,-7.219 1.922,0 3.84,0.007 5.748,0.024 18.324,0.16 35.984,1.108 52.346,2.535 l 11.054,0.965 -3.224,10.617 c -18.7,61.563 -22.363,127.678 -11.79,190.582 0.176,0.163 0.354,0.325 0.526,0.49 3.813,-1.336 7.38,-2.698 10.705,-4.154 -8.254,-67.394 -4.597,-136.923 26.229,-209.201 -17.202,-4.383 -43.425,-6.674 -72.239,-7.034 a 656.656,656.656 0 0 0 -8.675,-0.05 z m 144.945,7.385 C 367.837,144.047 345.85,196.581 342.246,253.294 362.284,186.492 401.015,126.609 445.15,88.136 A 602.328,602.328 0 0 0 398.793,78.491 Z M 103.832,97.02 c -18.76,3.868 -37.086,8.778 -54.812,15.562 8.626,7.48 24.22,21.395 43.14,39.889 8.708,-8.963 17.589,-17.818 26.852,-25.87 A 1067.587,1067.587 0 0 0 103.832,97.02 Z m 142.023,7.482 c -13.62,-0.066 -27.562,0.324 -41.554,1.293 -1.468,13.682 -9.56,26.482 -19.225,39.07 15.431,36.469 28.758,73.683 40.756,113.194 18.375,5.42 36.554,11.827 51.28,19.504 -5.47,-42.458 -4.722,-85.963 2.38,-128.508 -12.885,-13.31 -19.597,-28.09 -20.135,-44.34 a 621.48,621.48 0 0 0 -13.502,-0.213 z m 182.018,26.985 c -24.73,29.3 -46.521,65.997 -61.37,105.912 27.264,-38.782 60.79,-69.032 96.477,-90.4 a 1318.664,1318.664 0 0 0 -35.107,-15.512 z m -300.74,11.959 c -14.594,13.188 -29.014,29.017 -44.031,44.097 32.289,19.191 59.791,41.918 82.226,67.66 1.393,-0.526 2.8,-0.999 4.215,-1.43 -10.498,-36.096 -24.885,-73.033 -42.41,-110.327 z M 360.52,268.198 c -16.397,19.788 -31.834,30.235 -53.09,38.57 2.391,9.22 -1.16,19.805 -9.334,27.901 -4.808,4.761 -10.85,10.188 -19.684,13.715 a 62.896,62.896 0 0 0 3.9,2.127 c 12.364,6.17 34.207,4.18 54.5,-5.049 20.23,-9.2 38.302,-25.092 45,-41.191 3.357,-9.05 0.96,-13.77 -4.917,-20.692 -4.184,-4.925 -10.295,-9.89 -16.375,-15.38 z m -170.079,0.586 c -10.715,-0.098 -21.597,2.994 -30.59,9.76 -12.79,9.623 -22.65,26.784 -22.738,55.934 v 0.2 l -0.01,0.2 c -2.92,61.381 1.6,89.7 10.555,105.065 7.904,13.562 21.05,20.054 40.28,31.994 0.916,-2.406 1.87,-5.365 2.765,-9.098 2.277,-9.499 4.161,-22.545 5.355,-36.975 2.389,-28.858 2.04,-63.51 -1.955,-88.445 l -2.111,-13.19 13.016,2.995 c 31.615,7.273 49.7,8.132 60.2,6.28 10.502,-1.854 14.061,-5.523 20.221,-11.624 5.79,-5.732 5.682,-7.795 4.456,-11.021 -1.227,-3.227 -6.149,-8.545 -14.5,-13.633 C 258.682,287.05 230.3,277.615 203.771,270.579 a 53.988,53.988 0 0 0 -13.33,-1.795 z m 189.1,69.416 c -10.013,9.754 -22.335,17.761 -35.277,23.647 -20.983,9.542 -44.063,13.907 -63.211,7.553 -6.76,2.516 -10.687,5.407 -12.668,7.8 -2.718,3.284 -2.888,5.7 -1.967,9.16 0.92,3.46 3.665,7.568 7.059,10.524 3.393,2.956 7.426,4.492 8.959,4.564 46.794,2.222 67.046,-11.207 92.277,-26.783 7.358,-4.542 10.174,-13.743 9.469,-22.931 -0.353,-4.594 -1.69,-8.911 -3.233,-11.63 a 9.009,9.009 0 0 0 -1.408,-1.904 z m -166.187,9.096 c 2.727,25.068 2.772,54.314 0.642,80.053 -1.247,15.072 -3.175,28.779 -5.789,39.685 -1.137,4.746 -2.388,8.954 -3.9,12.659 l 146.697,-6.465 c -1.656,-6.149 -3.344,-12.324 -5.031,-18.502 a 127.004,127.004 0 0 1 -17.24,4.424 l 0.044,0.73 -8.316,0.518 c -5.121,0.614 -10.452,0.953 -15.983,0.992 l -83.86,5.21 2.493,-11.607 c 7.947,-37.006 8.68,-69.589 3.778,-105.234 a 353.433,353.433 0 0 1 -13.536,-2.463 z m 31.972,4.684 c 3.948,31.933 3.473,62.41 -2.406,95.2 l 19.264,-1.196 a 39.44,39.44 0 0 1 -6.1,-14.778 c -1.296,-6.88 -0.575,-14.538 3.926,-20.87 0.199,-0.281 0.414,-0.55 0.627,-0.821 -5.246,-4.845 -9.628,-11.062 -11.614,-18.524 -2.114,-7.944 -0.794,-17.67 5.497,-25.27 2.079,-2.51 4.592,-4.776 7.543,-6.816 -2.61,-2.08 -4.898,-4.285 -6.874,-6.582 -3.064,0.021 -6.345,-0.093 -9.863,-0.343 z m 132.666,41.785 c -23.456,14.253 -49.81,27.876 -96.41,25.664 a 26.402,26.402 0 0 1 -4.518,-0.615 c -1.233,0.553 -1.891,1.256 -2.382,1.947 -0.963,1.355 -1.532,3.8 -0.909,7.113 1.248,6.627 7.525,13.889 13.37,14.569 41.385,4.813 69.979,-8.726 87.341,-24.477 8,-7.258 8.068,-11.9 6.89,-16.951 -0.59,-2.523 -1.89,-4.969 -3.382,-7.25 z m -6.683,49.062 a 114.657,114.657 0 0 1 -8.547,4.86 c 1.65,6.051 3.304,12.102 4.937,18.154 l 19.92,-3.572 c -5.14,-4.387 -9.162,-8.954 -12.39,-13.496 -1.442,-2.029 -2.713,-4.001 -3.92,-5.946 z"
         transform="matrix(0.9,0,0,0.9,25.6,25.6)"
         id="path1328" />
    </g>
  </g>
  <g
     inkscape:groupmode="layer"
     id="layer7"
     inkscape:label="recycling"
     style="display:none;opacity:0.6">
    <path
       style="display:inline;opacity:1;fill:#008000;fill-opacity:1;stroke:#000000;stroke-width:0.26458332;stroke-linecap:square;stroke-linejoin:round;stroke-miterlimit:4;stroke-dasharray:none;stroke-dashoffset:0;stroke-opacity:1;paint-order:fill markers stroke"
       d="m 0.9260421,0.6945311 v 7.2760416 h 2.3156206 l 1.653129,1.6536459 1.653131,-1.6536459 h 2.315619 V 0.6945311 Z"
       id="rect831-8-6"
       inkscape:connector-curvature="0" />
    <g
       style="display:inline"
       id="g1202"
       transform="matrix(0.333072,0,0,0.333072,-2.4851856,5.0080271)">
      <path
         style="stroke-width:0.26458332"
         inkscape:connector-curvature="0"
         d="m 13.294433,4.9421173 c 0.199628,0.38473 0.58166,0.641085 1.013354,0.679979 h 4.7625 v 2.116666 h -4.7625 c -1.206447,-0.021934 -2.310104,-0.684133 -2.897188,-1.738312 -0.562414,-1.017455 -0.51349,-2.263008 0.127,-3.233208 l 2.751667,-4.7625 -1.815042,-1.058334 4.429125,-1.1853332 1.185334,4.42912515 -1.928813,-1.108604 -2.76225,4.78895805 c -0.235744,0.308345 -0.275749,0.7239 -0.103187,1.071563 z"
         id="path1100" />
      <path
         style="stroke-width:0.26458332"
         inkscape:connector-curvature="0"
         d="m 17.038287,-5.982529 2.214563,-4.135438 c 0.580919,-1.04513 1.685581,-1.690288 2.881312,-1.68275 1.162553,0.02384 2.216071,0.690193 2.735792,1.730375 l 2.751666,4.7625005 1.815042,-1.0583334 -1.185333,4.4423542 -4.418542,-1.185333 1.926167,-1.1138962 -2.775479,-4.7916041 c -0.150734,-0.357849 -0.490908,-0.5996782 -0.878417,-0.6244167 -0.408067,0.020214 -0.777425,0.2478352 -0.978958,0.60325 l -2.217209,4.1354375 z"
         id="path1102" />
      <path
         style="display:inline;opacity:0.22000002;fill:#b3b3b3;stroke-width:0.26458332"
         inkscape:connector-curvature="0"
         d="m 30.193827,4.8903912 c 0.230961,-0.3667779 0.258931,-0.825999 0.07418,-1.2180955 l -2.408369,-4.1086696 1.826074,-1.0703853 2.408369,4.1086697 c 0.591174,1.0519072 0.577996,2.3389186 -0.03457,3.3784958 -0.593361,0.9997223 -1.692656,1.5873839 -2.853553,1.52545 l -5.500171,0.03447 0.0048,2.1010533 -3.262385,-3.2216468 3.221646,-3.2623856 0.01898,2.2246268 5.528349,-0.03872 C 29.602406,5.390705 29.98114,5.2150742 30.19381,4.8903916 Z"
         id="path1100-9" />
      <path
         style="display:inline;fill:#aad400;stroke-width:0.26458332"
         inkscape:connector-curvature="0"
         d="m 27.77135,2.0720352 c -0.07056,0.0023 -0.138061,0.02947 -0.1905,0.07673 -1.015948,0.758984 -1.981915,1.5826581 -2.891897,2.4659171 -0.365125,0.365125 -0.695854,0.6985 -1.000125,1.031875 -0.332872,-0.628492 -0.507259,-1.328738 -0.508,-2.039938 -0.04575,-2.291874 1.774799,-4.18703118 4.066647,-4.23333318 2.135188,0.05556 5.521853,-0.91545902 5.521853,-0.91545902 0,3.7253341 -0.391583,7.0432091 -3.503083,8.8450211 -0.608938,0.367824 -1.307359,0.5609701 -2.01877,0.5582711 -0.977187,0.00249 -1.920347,-0.3587221 -2.645834,-1.0133542 -0.769938,0.8598961 -1.288521,1.5875 -1.288521,1.9235213 h -0.85725 c 0,-0.5132921 0.428625,-1.2408963 1.090083,-2.0452291 0.07408,-0.08996 0.232834,-0.2645841 0.232834,-0.2645841 L 28.07562,2.3868901 c 0.0088,-0.164888 -0.117739,-0.3056998 -0.282628,-0.314484 -0.0072,-3.969e-4 -0.01442,-5.027e-4 -0.02164,-3.704e-4 z"
         id="path1098" />
    </g>
  </g>
</svg>
