<svg version="1.1" xmlns="http://www.w3.org/2000/svg" xmlns:xlink="http://www.w3.org/1999/xlink" width="1900.74828" height="414.11181" viewBox="30.22823,358.01893,1900.74828,414.11181"><g fill="none" fill-rule="nonzero" stroke="none" stroke-width="none" stroke-linecap="butt" stroke-linejoin="miter" stroke-miterlimit="10" stroke-dasharray="" stroke-dashoffset="0" font-family="none" font-weight="none" font-size="none" text-anchor="none" style="mix-blend-mode: normal"><path d="M91.66843,415.34206c13.60705,-6.25062 27.98262,-10.58829 43.12669,-13.01301c18.16149,-2.5043 34.44694,-2.14214 48.85637,1.08649c10.09824,2.26265 19.23739,5.3599 27.41742,9.29177l-8.29431,2.95179l-8.28884,11.70117l-10.51908,-2.27849l-8.70362,2.45423l-7.41075,3.02216l-7.11948,9.312l-10.92971,-0.15938l-13.7385,0.14728l-12.71275,4.14225l-17.81156,-0.54336l-9.21796,-9.11301l0.05252,-10.93702l-7.1371,-6.91979c0.80328,-0.38802 1.6135,-0.76972 2.43066,-1.1451z" fill="#d0d0ce" stroke="none" stroke-width="1"/><path d="M299.41119,665.36583c1.09402,11.96861 -0.64205,23.59712 -5.20818,34.88552c-4.56614,11.28841 -11.6354,21.59876 -21.20778,30.93105c-9.57238,9.33229 -21.61416,17.3446 -36.12533,24.03691c-14.51117,6.69231 -31.32966,11.45103 -50.45546,14.27616c-14.83899,2.19191 -29.0634,2.27133 -42.67324,0.23828c-13.60984,-2.03306 -26.22665,-5.89755 -37.85041,-11.59347c-11.62377,-5.69593 -21.91257,-13.18956 -30.86639,-22.4809c-8.95383,-9.29134 -16.0537,-20.28857 -21.29962,-32.99169l74.24601,-44.83058c-0.6108,0.42717 0.47211,2.62586 3.24874,6.59607c2.77663,3.97021 6.49661,8.05379 11.15996,12.25073c4.66334,4.19694 10.16045,7.7653 16.49132,10.70508c6.33087,2.93978 12.7208,3.42794 19.16977,1.4645c5.50842,-1.48756 10.6665,-4.77661 15.47425,-9.86712c4.80774,-5.09052 6.36481,-12.228 4.6712,-21.41243c-1.15781,-5.55713 -4.15082,-10.42199 -8.97905,-14.59458c-4.82822,-4.17259 -11.42419,-8.33677 -19.78791,-12.49255c-18.47363,-8.72752 -35.50366,-16.23623 -51.09009,-22.52615c-15.58644,-6.28992 -29.4201,-13.25993 -41.501,-20.91003c-12.0809,-7.6501 -22.02399,-16.79531 -29.82928,-27.43563c-7.80529,-10.64032 -12.99872,-24.69899 -15.5803,-42.17602c-2.38674,-16.15801 -1.18368,-30.82458 3.60919,-43.9997c4.79287,-13.17513 12.0214,-24.68833 21.6856,-34.53961c9.08382,-9.25967 19.88254,-16.98648 32.39616,-23.18044l7.20338,6.85077l0.05276,10.93701l9.30525,9.02386l17.81597,0.37189l12.67229,-4.26443l13.73645,-0.27952l10.93074,0.05417l7.02952,-9.3801l7.38131,-3.09335l8.67959,-2.53789l10.54052,2.17713l8.17583,-11.78041l8.26551,-3.03149c3.50825,1.64491 6.84316,3.44362 10.00473,5.39612c10.56704,6.52592 19.23142,14.42797 25.99313,23.70616c6.76171,9.27819 11.69759,18.74184 14.80764,28.39096l-68.47335,39.42905c-1.52507,-3.48118 -3.60565,-7.30149 -6.24175,-11.46093c-2.6361,-4.15944 -5.96545,-7.87953 -9.98803,-11.16027c-4.02258,-3.28074 -8.61944,-5.88699 -13.79056,-7.81875c-5.17112,-1.93176 -10.88936,-2.43491 -17.15471,-1.50943c-6.59511,0.97418 -12.30871,3.92409 -17.14081,8.84973c-4.8321,4.92564 -6.63929,11.5104 -5.42156,19.75428c0.92547,6.26535 4.29695,11.41126 10.11444,15.43772c5.81749,4.02646 14.7517,9.19306 26.80264,15.49978c16.43518,6.33302 32.29328,12.75128 47.57432,19.25478c15.28103,6.5035 29.16621,14.39252 41.65554,23.66704c12.48932,9.27453 23.04225,20.26712 31.65878,32.97778c8.61653,12.71066 14.313,28.46402 17.08942,47.26007z" fill="#d0d0ce" stroke="none" stroke-width="1"/><path d="M574.89093,395.35806l1.22348,71.98209l-12.98968,5.82011l-15.26179,1.04231l-10.25286,12.21975l-8.2547,6.83354l-1.14742,10.99631l-16.76218,7.98016l-3.79635,10.12412l-3.29448,11.27315l0.81375,15.36201l-1.52691,14.19922l-7.94624,10.81496l4.04571,12.65474l-3.93973,11.09969l10.24399,14.09308l6.68416,11.66598l0.2828,10.66782l5.85338,9.33449l7.16545,6.97488l10.73822,1.61808l6.19806,8.88724l8.54604,2.10946l9.5224,-3.79016l12.76237,9.97445c-0.83457,3.62076 -1.77499,7.17747 -2.82127,10.67013c-5.52092,18.42982 -13.75203,34.322 -24.69332,47.67654c-10.94129,13.35454 -24.68317,23.75625 -41.22563,31.20512c-16.54246,7.44888 -35.81494,11.19361 -57.81743,11.23421l-0.49993,0.0085c-24.32415,0.74682 -45.05298,-2.73474 -62.18648,-10.44467c-17.1335,-7.70994 -31.15036,-18.38993 -42.05058,-32.03999c-10.90022,-13.65006 -18.9196,-29.43272 -24.05813,-47.34798c-5.13854,-17.91526 -7.87492,-36.7048 -8.20915,-56.36863l-3.80679,-223.96765l86.48751,-1.47003l3.69633,217.46859c0.15295,8.9987 1.21394,17.48189 3.18297,25.44958c1.96903,7.96769 5.00423,14.91711 9.10562,20.84826c4.10139,5.93116 9.18139,10.5955 15.24001,13.99302c6.05861,3.39753 13.25399,5.02548 21.58612,4.88386c8.33213,-0.14162 15.46802,-2.01316 21.40767,-5.61463c5.93965,-3.60146 10.77488,-8.43433 14.5057,-14.49861c3.73081,-6.06428 6.44477,-13.11142 8.14189,-21.14142c1.69711,-8.03 2.46919,-16.54435 2.31624,-25.54305l-3.69633,-217.46859z" fill="#d0d0ce" stroke="none" stroke-width="1"/><path d="M970.11153,612.14505l-9.14975,-8.60895l-14.9241,-5.65607l-4.80982,-7.29804l-6.03534,-15.00068l-2.14244,-9.24582l-10.06488,-10.96693l-3.81853,-13.52693l-1.22736,-15.06259l0.26207,-10.77719l4.00218,-9.20884l-0.53433,-16.52477l4.26574,-12.37201l4.60644,-9.93125l12.54117,-3.68161l8.42049,-12.72103l1.11948,-4.57767l27.60852,173.15587z" fill="#d0d0ce" stroke="none" stroke-width="1"/><path d="M1332.78312,770.66892l-95.48365,-1.76692l-31.68109,-98.60303l-72.48759,-1.34138l-34.80753,97.37267l-95.48365,-1.76692l115.864,-369.91963l111.98083,2.0722l3.56059,13.04125l-0.52634,0.36148l-14.18223,5.85663l-9.12289,5.54943l-10.31746,8.42945l-7.06822,8.71529l1.03341,17.33016l-8.01558,7.74314l1.00365,13.93295l2.32632,11.40973l-1.69584,15.28685l-3.69915,13.83883l2.20747,8.08768l7.81248,8.92077l-2.65719,14.33349l6.79549,11.9003l8.34185,10.9522l0.77723,14.10873l6.36841,5.94875l2.09488,15.52266l8.18521,8.40004l5.73146,10.33245l9.67537,8.56756l10.28462,0.90796l8.59477,3.59828l12.49641,9.344l15.13237,8.1397l8.7614,-5.10234l4.77687,-3.92267z" fill="#d0d0ce" stroke="none" stroke-width="1"/><path d="M1512.15016,403.58297c18.10697,2.87208 33.58702,7.94311 46.44014,15.21309c12.85313,7.26999 23.34441,15.59972 31.47384,24.9892c8.12943,9.38948 14.03154,19.52255 17.70632,30.3992c0.3251,0.96224 0.63614,1.92159 0.9331,2.87805l-0.07778,1.60601l-8.31212,-3.09456l-14.33161,-2.24822l-11.35319,5.54807l-8.42186,5.15897l-14.55223,-2.2585l-12.05111,4.06041l-11.60343,-5.72053l-8.62433,2.4292l-15.40123,-6.14797l-8.14563,-8.93728l-7.0565,-4.94353l-4.60349,-14.97056l-7.96837,-8.13159l-1.44361,-15.44559l1.39176,-10.41003l-4.2884,-10.61289c13.28588,-1.42553 26.71578,-1.21251 40.2897,0.63908z" fill="#d0d0ce" stroke="none" stroke-width="1"/><path d="M1545.07322,716.17787c-4.18547,11.26616 -10.77616,21.00263 -19.77207,29.20942c-8.99591,8.20679 -19.8265,14.44987 -32.49177,18.72925c-12.66528,4.27937 -26.98706,6.30125 -42.96534,6.06564c-15.97829,-0.23561 -33.20175,-3.21203 -51.67041,-8.92925c-14.32913,-4.43578 -27.19115,-10.51103 -38.58607,-18.22575c-11.39492,-7.71473 -21.10287,-16.65193 -29.12387,-26.81161c-8.021,-10.15968 -14.06126,-21.36366 -18.12078,-33.61194c-4.05952,-12.24828 -5.70995,-25.23378 -4.95129,-38.95651l86.32858,-8.34425c-0.73542,0.12128 -0.70898,2.57204 0.07934,7.35229c0.78832,4.78025 2.37837,10.07039 4.77017,15.87043c2.3918,5.80004 5.80712,11.39351 10.24597,16.78042c4.43885,5.38691 9.99039,8.58846 16.65461,9.60464c5.61037,1.03889 11.68329,0.30179 18.21875,-2.21128c6.53546,-2.51307 11.024,-8.27685 13.46561,-17.29132c1.35731,-5.5118 0.76047,-11.19236 -1.79054,-17.04168c-2.55101,-5.84932 -6.69982,-12.45497 -12.44643,-19.81695c-12.8882,-15.85366 -25.00125,-29.98437 -36.33913,-42.39213c-11.33788,-12.40776 -20.80121,-24.67139 -28.38999,-36.79091c-7.58878,-12.11952 -12.60357,-24.66351 -15.04439,-37.63199c-2.44082,-12.96847 -1.04904,-27.89097 4.17531,-44.7675c4.83007,-15.60283 12.25295,-28.30938 22.26864,-38.11965c10.01569,-9.81027 21.50972,-17.06927 34.48206,-21.77699c12.97235,-4.70772 26.94538,-7.01203 41.91911,-6.91293c1.59855,0.01058 3.1958,0.04462 4.79175,0.10212l2.73325,11.11544l-2.86012,10.10572l-0.77078,15.49374l6.72909,9.18352l2.42453,15.47357l6.28054,5.8981l6.7898,10.00625l14.36869,8.27867l8.88237,-1.1762l10.67046,7.31473l12.50653,-2.30276l14.08225,4.30794l9.07073,-3.90698l12.02759,-3.87466l13.86535,4.26634l7.78668,4.24679l0.3057,-1.57857c1.62509,10.19012 1.81549,19.86362 0.5712,29.02051l-78.78856,5.96768c0.12903,-3.79839 -0.09637,-8.14268 -0.67619,-13.03285c-0.57982,-4.89018 -1.97466,-9.68371 -4.18454,-14.38062c-2.20988,-4.6969 -5.2291,-9.03371 -9.05769,-13.01041c-3.82858,-3.97671 -8.76791,-6.9015 -14.81799,-8.77438c-6.3685,-1.97146 -12.79584,-1.78025 -19.28201,0.57361c-6.48617,2.35386 -10.96142,7.51111 -13.42574,15.47173c-1.87288,6.05008 -1.05618,12.14763 2.4501,18.29268c3.50628,6.14504 9.33056,14.66511 17.47284,25.56022c12.08466,12.8134 23.61208,25.4543 34.58225,37.92269c10.97017,12.4684 20.08282,25.58306 27.33794,39.34399c7.25512,13.76093 12.02155,28.23444 14.29928,43.42054c2.27773,15.1861 0.60727,31.85426 -5.01138,50.00449z" fill="#d0d0ce" stroke="none" stroke-width="1"/><path d="M1818.37558,424.4377c16.19148,10.14217 29.99968,23.30173 41.42458,39.47868c10.01974,14.28458 16.8281,29.77944 20.42506,46.48459c3.59697,16.70514 4.31795,33.49079 2.16295,50.35694l-8.40677,56.89907l-5.83645,-4.54617l-8.5837,-4.26717l-12.94464,-8.21078l-8.67618,-5.20727l-16.11676,-4.10776l1.11253,-12.50302l-13.40874,-8.57326l1.76015,-12.02954l-4.98726,-13.54659l0.17996,-8.40759l-8.00451,-11.10933l6.87106,-9.12109l-2.9915,-9.81316l2.12504,-13.22311l-3.32564,-7.8966l-3.21029,-9.00548l1.93573,-9.08921l4.12346,-12.99829l-2.8184,-8.07847l-4.49295,-15.22435l4.64292,-14.85598l-0.07686,-0.50579c5.89516,2.61179 11.6009,5.64537 17.11722,9.10073z" fill="#d0d0ce" stroke="none" stroke-width="1"/><path d="M1215.65984,582.83382l-7.10679,-24.8892" fill="none" stroke="none" stroke-width="1"/><path d="" fill="none" stroke="#00bb31" stroke-width="6" opacity="0"/><path d="M1290.4545,652.19996l-9.27126,4.10363l-14.14097,-9.76096l-11.38814,-10.66682l-8.14485,-4.52538l-10.12146,-2.03812l-8.6701,-9.5836l-4.55541,-10.90217l-7.20755,-9.25254l-0.36792,-15.65906l-0.92699,-1.08111l-1.71853,-9.31075l7.14044,-7.05466l3.63403,-15.58139l9.83112,-7.92658l8.38706,-5.23797l-3.48881,-6.04965l0.49835,-1.14841l1.39804,-15.60012l12.97649,-9.68916l1.73686,-11.53102l-3.79433,8.10074l-14.00522,7.97401l-2.42677,13.88498l-0.51073,0.85218l-0.65333,-1.13288l0.78329,-14.12043l-5.19429,-13.60218l7.10636,-10.65362l-11.09141,10.99912l3.20176,13.77493l-2.77581,14.29318l4.35861,7.55788l-1.64978,2.75271l-10.85985,6.21144l-4.66276,13.86625l-5.32759,3.48221l-3.93463,-6.55998l-5.4398,-12.57793l4.22377,-13.9524l-6.77959,-9.72893l-1.30086,-8.28198l5.20472,-13.3457l3.37357,-15.00608l-1.05213,-11.59684l0.54108,-13.95857l8.82162,-6.81063l0.88665,-17.33829l7.98741,-7.88145l11.18521,-7.23855l9.67991,-4.50807l14.74224,-4.25469l0.56304,-0.30115l38.38008,244.22542z" fill="#d0d0ce" stroke="none" stroke-width="1"/><path d="M582.35904,619.6899c-0.43357,17.82548 -2.75323,34.40043 -6.95897,49.72485l-12.33952,-10.49305l-9.67082,3.39363l-8.45162,-2.46063l-5.82571,-9.13565l-10.66223,-2.06021l-6.87126,-7.26488l-5.46285,-9.56828l0.15804,-10.6704l-6.19663,-11.9321l-7.63497,-11.47176l1.2057,-5.27941l11.7357,-1.95689l8.63917,-13.20017l3.77485,-9.54799l6.56887,-11.02903l7.09489,-8.47558l-8.15455,4.61849l-7.0987,9.10049l-4.30468,7.61945l-9.169,11.27163l-8.71208,0.02013l-2.72315,-9.91205l8.38614,-10.47754l2.11207,-14.12404l-0.17857,-15.38251l3.75727,-11.12746l4.21125,-9.95868l17.07747,-7.28104l1.60061,-10.93953l8.5299,-6.48677l10.74881,-11.78586l15.29182,-0.41108l13.21898,-5.27865z" fill="#d0d0ce" stroke="none" stroke-width="1"/><path d="M502.44249,597.75143l1.58017,-16.85888" fill="none" stroke="none" stroke-width="1"/><path d="" fill="none" stroke="#00bb31" stroke-width="6" opacity="0"/><path d="M1808.94277,557.58744l15.69276,33.60935" fill="none" stroke="none" stroke-width="1"/><path d="" fill="none" stroke="#00bb31" stroke-width="6" opacity="0"/><path d="M1802.20516,508.82374l-1.64887,-48.43387" fill="none" stroke="none" stroke-width="1"/><path d="" fill="none" stroke="#00bb31" stroke-width="6" opacity="0"/><path d="M1866.26623,645.89544c-2.87848,17.76835 -8.51154,35.34372 -16.89919,52.72611c-8.38765,17.38238 -20.28176,31.91739 -35.68231,43.60502c-15.83621,12.29241 -33.00472,20.82336 -51.50552,25.59284c-18.50081,4.76948 -37.45799,5.58173 -56.87156,2.43673l-0.49357,-0.07996c-19.08453,-3.0917 -36.65118,-9.8208 -52.69995,-20.18732c-16.04877,-10.36652 -29.83701,-23.74362 -41.36472,-40.13131c-10.59389,-15.89873 -17.19285,-33.00752 -19.7969,-51.32636c-2.60405,-18.31884 -2.47144,-37.37623 0.39782,-57.17215l13.91263,-85.88037c2.55864,-15.79409 8.28318,-31.32857 17.17361,-46.60343c8.89043,-15.27486 20.10671,-28.23128 33.64882,-38.86926c16.11195,-11.91006 33.33607,-20.26316 51.67235,-25.0593c18.33628,-4.79614 37.21121,-5.62171 56.62478,-2.4767l0.49357,0.07996c12.79952,2.07352 24.86772,5.7166 36.20461,10.92922l0.06981,0.50681l-4.84921,14.78993l4.28064,15.2854l2.7057,8.11691l-2.73135,8.21167l-4.35363,-10.75352l-1.3344,10.62625l-8.83319,12.80986l-6.58185,5.8866l-5.49851,11.43875l-6.88655,11.70959l-8.81626,9.20435l-3.0102,13.11456l-7.44515,12.53902l-4.92298,7.00381l-11.03373,8.91658l-1.60523,9.23821l-5.75005,8.63878l-3.37717,8.57874l-4.31155,14.50554l0.31934,2.89443l-6.62329,4.21427l-7.14045,6.71604l-3.82271,8.95044l-1.60523,9.23821l-4.38131,9.77988l-9.07016,4.2108l-6.78212,11.24847l8.28319,-7.5408l9.8207,-2.35697l5.13184,-7.92605l2.35577,-7.38438l4.57324,-7.09661l6.68479,-4.11898l-0.02613,0.07077l2.60305,15.59564l0.26257,11.17726l-6.13142,13.20628l-1.34815,14.97273l-2.33595,14.817l6.28714,-14.19408l3.32375,-14.66127l8.10701,-12.89482l1.71303,-10.8658l-0.62745,-15.28418l5.5085,-9.25508l0.72523,-11.02153l1.35271,-3.05393l1.89362,-1.16679l2.2613,-8.21348l0.77952,-1.75988l5.35277,-8.26728l-5.75005,8.63878l2.35577,-7.38438l11.78427,-7.06275l5.67351,-5.14997l8.19569,-10.68519l3.76074,-11.26072l9.56679,-7.35052l7.63708,-9.85576l6.24905,-9.58492l7.33239,-4.03277l1.15937,-1.32538l1.56235,5.393l-6.99733,9.02458l7.84913,11.21965l-0.29695,8.40428l4.79825,13.61469l-0.17783,1.10751l-4.33704,11.01955l2.4893,8.93266l-2.60686,9.10337l-0.96002,11.40292l0.18975,10.5795l-2.77004,10.08997l-8.67055,7.63571l7.50275,4.94793l-1.2493,7.09923l3.32025,16.16519l-7.53984,8.28748l0.02658,11.5661l-0.12509,11.95327l3.46481,-9.75185l1.64329,-10.46539l9.2097,-7.18677l-0.77411,-7.06597l2.77299,4.82945l4.96192,11.10762l0.83902,11.14881l-0.08746,15.52393l3.95814,-16.53279l1.09632,-11.65324l-3.02658,-11.61205l-3.74204,-10.39217l0.59189,-13.58859l-3.06769,-2.02309l0.58403,-2.28785l4.4399,-8.98926l1.48011,-9.47879l2.62988,-10.30221l3.44874,-6.45333l10.61742,2.86405l8.60287,5.32751l12.82912,8.39013l8.52349,4.38621l5.77262,4.62695z" fill="#d0d0ce" stroke="none" stroke-width="1"/><path d="M884.3518,616.55215l2.13797,-0.70014" fill="none" stroke="none" stroke-width="1"/><path d="" fill="none" stroke="#00bb31" stroke-width="6" opacity="0"/><path d="M940.44454,358.01893l12.04376,86.48842l-1.20966,4.55467l-8.67006,12.55226l-12.61143,3.43323l-4.80166,9.83834l-4.50923,12.28536l0.2079,16.5321l-4.18326,9.12801l-0.47485,10.76991l0.92966,15.08389l3.55066,13.5997l9.84634,11.16355l1.95944,9.28632l5.73793,15.11694l4.66476,7.3916l14.80949,5.94968l8.97796,8.78796l9.95967,8.19377l15.07957,108.2891l-88.14943,12.27507l-17.11235,-122.88681l10.59823,-3.47069l3.94029,-19.60801l-14.1889,6.47832l-9.12095,5.91633l-9.63892,-2.31359l-12.23891,2.71036l-10.16195,12.54327l-8.31305,-4.60067l-1.58625,5.07091l-6.10757,0.29012l-16.9419,9.3207l-11.87394,8.75871l11.08588,-4.83711l6.03875,-2.01833l-5.70722,6.55327l-8.16711,2.50965l-6.69756,7.69043l9.14022,-4.52287l9.38844,-0.92587l7.91889,-6.10665l15.97177,-2.21419l1.6686,-5.33416l2.2119,0.17007l9.76792,-10.58247l11.84488,-0.74955l9.24489,4.27439l8.72692,-3.95553l1.05867,-0.34669l-25.81484,128.46213l-53.48393,7.44779l-64.53716,-126.306l18.48156,132.71937l-88.14943,12.27507l-51.30702,-368.44483l84.68288,-11.79234l106.05529,203.3157l46.96817,-224.62467z" fill="#d0d0ce" stroke="none" stroke-width="1"/><path d="M1189.99036,576.70419l-35,-35h-28.5" fill="none" stroke="#00bb31" stroke-width="6"/><path d="M1212.10645,570.38922l-22.11609,6.31496v-17l-35,-35h-57l28.5,52h28.5" fill="none" stroke="#00bb31" stroke-width="6"/><path d="M1120.49036,541.70419c0,-3.31371 2.68629,-6 6,-6c3.31371,0 6,2.68629 6,6c0,3.31371 -2.68629,6 -6,6c-3.31371,0 -6,-2.68629 -6,-6z" fill="#00bb31" stroke="none" stroke-width="1"/><path d="M1148.99036,576.70419c0,-3.31371 2.68629,-6 6,-6c3.31371,0 6,2.68629 6,6c0,3.31371 -2.68629,6 -6,6c-3.31371,0 -6,-2.68629 -6,-6z" fill="#00bb31" stroke="none" stroke-width="1"/><path d="M1208.55305,557.94462l5.32759,-3.48221l4.66276,-13.86625l10.85985,-6.21144l1.64978,-2.75271l-4.35861,-7.55788l2.77581,-14.29318l-3.20176,-13.77493l11.09141,-10.99912l-7.10636,10.65362l5.19429,13.60218l-0.78329,14.12043l0.65333,1.13288l0.51073,-0.85218l2.42677,-13.88498l14.00522,-7.97401l3.79433,-8.10074l-1.73686,11.53102l-12.97649,9.68916l-1.39804,15.60012l-0.49835,1.14841l3.48881,6.04965l-8.38706,5.23797l-9.83112,7.92658l-3.63403,15.58139l-7.14044,7.05466l1.71853,9.31075l-25.66948,-6.12964" fill="#00bb31" stroke="none" stroke-width="1"/><path d="M482.32421,587.36227l-36,-36h-29.5" fill="none" stroke="#00bb31" stroke-width="6"/><path d="M503.23257,589.32199l-20.90836,-1.95972v-20l-36,-36h-59l29.5,56h29.5" fill="none" stroke="#00bb31" stroke-width="6"/><path d="M410.82421,551.36227c0,-3.31371 2.68629,-6 6,-6c3.31371,0 6,2.68629 6,6c0,3.31371 -2.68629,6 -6,6c-3.31371,0 -6,-2.68629 -6,-6z" fill="#00bb31" stroke="none" stroke-width="1"/><path d="M440.32421,587.36227c0,-3.31371 2.68629,-6 6,-6c3.31371,0 6,2.68629 6,6c0,3.31371 -2.68629,6 -6,6c-3.31371,0 -6,-2.68629 -6,-6z" fill="#00bb31" stroke="none" stroke-width="1"/><path d="M482.32421,587.36227l20.11828,10.38916l1.2057,-5.27941l11.7357,-1.95689l8.63917,-13.20017l3.77485,-9.54799l6.56887,-11.02903l7.09489,-8.47558l-8.15455,4.61849l-7.0987,9.10049l-4.30468,7.61945l-9.169,11.27163l-8.71208,0.02013" fill="#00bb31" stroke="none" stroke-width="1"/><path d="M1836.72327,565.08455l30,-30h29.5" fill="none" stroke="#00bb31" stroke-width="6"/><path d="M1816.78915,574.39212l19.93412,-9.30757v-20l30,-30h59l-29.5,50h-29.5" fill="none" stroke="#00bb31" stroke-width="6"/><path d="M1890.22327,535.08455c0,-3.31371 2.68629,-6 6,-6c3.31371,0 6,2.68629 6,6c0,3.31371 -2.68629,6 -6,6c-3.31371,0 -6,-2.68629 -6,-6z" fill="#00bb31" stroke="none" stroke-width="1"/><path d="M1860.72327,565.08455c0,-3.31371 2.68629,-6 6,-6c3.31371,0 6,2.68629 6,6c0,3.31371 -2.68629,6 -6,6c-3.31371,0 -6,-2.68629 -6,-6z" fill="#00bb31" stroke="none" stroke-width="1"/><path d="M1824.63553,591.19679l-3.44874,6.45333l-2.62988,10.30221l-1.48011,9.47879l-4.4399,8.98926l-0.58403,2.28785l3.06769,2.02309l-0.59189,13.58859l3.74204,10.39217l3.02658,11.61205l-1.09632,11.65324l-3.95814,16.53279l0.08746,-15.52393l-0.83902,-11.14881l-4.96192,-11.10762l-2.77299,-4.82945l0.77411,7.06597l-9.2097,7.18677l-1.64329,10.46539l-3.46481,9.75185l0.12509,-11.95327l-0.02658,-11.5661l7.53984,-8.28748l-3.32025,-16.16519l1.2493,-7.09923l-7.50275,-4.94793l8.67055,-7.63571l2.77004,-10.08997l-0.18975,-10.5795l0.96002,-11.40292l2.60686,-9.10337l-2.4893,-8.93266l4.33704,-11.01955l27.7805,7.4971" fill="#00bb31" stroke="none" stroke-width="1"/><path d="M1827.36567,483.72218l31,-31h23.5" fill="none" stroke="#00bb31" stroke-width="6"/><path d="M1801.38072,484.6068l25.98495,-0.88463v-17l31,-31h47l-23.5,48h-23.5" fill="none" stroke="#00bb31" stroke-width="6"/><path d="M1875.86567,452.72218c0,-3.31371 2.68629,-6 6,-6c3.31371,0 6,2.68629 6,6c0,3.31371 -2.68629,6 -6,6c-3.31371,0 -6,-2.68629 -6,-6z" fill="#00bb31" stroke="none" stroke-width="1"/><path d="M1852.36567,483.72218c0,-3.31371 2.68629,-6 6,-6c3.31371,0 6,2.68629 6,6c0,3.31371 -2.68629,6 -6,6c-3.31371,0 -6,-2.68629 -6,-6z" fill="#00bb31" stroke="none" stroke-width="1"/><path d="M1827.36567,483.72218l-25.16051,25.10156l8.42436,-9.63065l2.08493,-8.77242l-12.15816,-30.0308M1738.49051,582.5161l5.75005,-8.63878l-5.35277,8.26728l-6.28714,14.19408l-0.72523,11.02153l-5.5085,9.25508l0.62745,15.28418l-1.71303,10.8658l-8.10701,12.89482l-3.32375,14.66127l-6.28714,14.19408l2.33595,-14.817l1.34815,-14.97273l6.13142,-13.20628l-0.26257,-11.17726l-2.60305,-15.59564l3.5329,-9.56654l-1.25037,-11.33299l4.31155,-14.50554l3.37717,-8.57874l5.75005,-8.63878z" fill="#00bb31" stroke="none" stroke-width="1"/><path d="M897.8694,654.21566l37,-37h31.5" fill="none" stroke="#00bb31" stroke-width="6"/><path d="M885.42079,616.20208l12.44861,38.01358v-19l37,-37h63l-31.5,56h-31.5" fill="none" stroke="#00bb31" stroke-width="6"/><path d="M960.3694,617.21566c0,-3.31371 2.68629,-6 6,-6c3.31371,0 6,2.68629 6,6c0,3.31371 -2.68629,6 -6,6c-3.31371,0 -6,-2.68629 -6,-6z" fill="#00bb31" stroke="none" stroke-width="1"/><path d="M928.8694,654.21566c0,-3.31371 2.68629,-6 6,-6c3.31371,0 6,2.68629 6,6c0,3.31371 -2.68629,6 -6,6c-3.31371,0 -6,-2.68629 -6,-6z" fill="#00bb31" stroke="none" stroke-width="1"/><path d="M897.8694,654.21566l-13.51759,-37.66351l2.13797,-0.70014M843.70852,627.91201l-0.23626,-6.48578l-3.64424,11.64987l-15.97177,2.21419l-7.91889,6.10665l-9.38844,0.92587l-9.14022,4.52287l6.69756,-7.69043l8.16711,-2.50965l6.69756,-7.69043l14.75044,-3.79797l3.64424,-11.64987l8.31305,4.60067z" fill="#00bb31" stroke="none" stroke-width="1"/><path d="" fill="none" stroke="none" stroke-width="1"/></g></svg>